<svg width="30" height="31" viewBox="0 0 30 31" fill="none" xmlns="http://www.w3.org/2000/svg">
<g filter="url(#filter0_d_182_6807)">
<path d="M5 2H6.74001C7.82001 2 8.67 2.93 8.58 4L7.75 13.96C7.61 15.59 8.89999 16.99 10.54 16.99H21.19C22.63 16.99 23.89 15.81 24 14.38L24.54 6.88C24.66 5.22001 23.4 3.87 21.73 3.87H8.82001" fill="#818B9C"/>
<path d="M5 2H6.74001C7.82001 2 8.67 2.93 8.58 4L7.75 13.96C7.61 15.59 8.89999 16.99 10.54 16.99H21.19C22.63 16.99 23.89 15.81 24 14.38L24.54 6.88C24.66 5.22 23.4 3.87 21.73 3.87H8.82001" stroke="#818B9C" stroke-width="1.5" stroke-miterlimit="10" stroke-linecap="round" stroke-linejoin="round"/>
<path d="M19.25 22C19.9404 22 20.5 21.4404 20.5 20.75C20.5 20.0596 19.9404 19.5 19.25 19.5C18.5596 19.5 18 20.0596 18 20.75C18 21.4404 18.5596 22 19.25 22Z" stroke="#818B9C" stroke-width="1.5" stroke-miterlimit="10" stroke-linecap="round" stroke-linejoin="round"/>
<path d="M11.25 22C11.9404 22 12.5 21.4404 12.5 20.75C12.5 20.0596 11.9404 19.5 11.25 19.5C10.5596 19.5 10 20.0596 10 20.75C10 21.4404 10.5596 22 11.25 22Z" stroke="#818B9C" stroke-width="1.5" stroke-miterlimit="10" stroke-linecap="round" stroke-linejoin="round"/>
<path d="M12 8H24" stroke="white" stroke-width="1.5" stroke-miterlimit="10" stroke-linecap="round" stroke-linejoin="round"/>
</g>
<defs>
<filter id="filter0_d_182_6807" x="-1" y="0" width="32" height="32" filterUnits="userSpaceOnUse" color-interpolation-filters="sRGB">
<feFlood flood-opacity="0" result="BackgroundImageFix"/>
<feColorMatrix in="SourceAlpha" type="matrix" values="0 0 0 0 0 0 0 0 0 0 0 0 0 0 0 0 0 0 127 0" result="hardAlpha"/>
<feOffset dy="4"/>
<feGaussianBlur stdDeviation="2"/>
<feComposite in2="hardAlpha" operator="out"/>
<feColorMatrix type="matrix" values="0 0 0 0 0 0 0 0 0 0 0 0 0 0 0 0 0 0 0.25 0"/>
<feBlend mode="normal" in2="BackgroundImageFix" result="effect1_dropShadow_182_6807"/>
<feBlend mode="normal" in="SourceGraphic" in2="effect1_dropShadow_182_6807" result="shape"/>
</filter>
</defs>
</svg>
